# xmcd
# Track frame offsets:
# 150
# 13713
# 38714
# 50314
# 72940
#
# Disc length: 1260 seconds
# Revision: 0
# Processed by: cddbd v1.5.2PL0 Copyright (c) Steve Scherf et al.
# Submitted via: VisiTrax 2.10.2.252 - For more info visit www.synapsa.com
#
DISCID=3804ea05
DTITLE=Svante Sjöblom and The Sailors - Demo
DYEAR=2006
DGENRE=Blues
TTITLE0=Demo
TTITLE1=Demo
TTITLE2=Demo
TTITLE3=Demo
TTITLE4=Demo
EXTD=
EXTT0=
EXTT1=
EXTT2=
EXTT3=
EXTT4=
PLAYORDER=
